<svg xmlns="http://www.w3.org/2000/svg" width="30.519" height="28.332" viewBox="0 0 30.519 28.332">
  <g id="noun_date_1828460" transform="translate(0.3 0.3)">
    <g id="Group_8856" data-name="Group 8856" transform="translate(0 0)">
      <path id="Path_23969" data-name="Path 23969" d="M52.137,60a1.273,1.273,0,0,0-1.273,1.273v1.253H48.651a4.108,4.108,0,0,0-4.1,4.1v17a4.108,4.108,0,0,0,4.1,4.1H70.363a4.108,4.108,0,0,0,4.1-4.1v-17a4.108,4.108,0,0,0-4.1-4.1h-1.9V61.273a1.273,1.273,0,0,0-2.547,0v1.253H53.41V61.273A1.273,1.273,0,0,0,52.137,60ZM71.92,83.629a1.558,1.558,0,0,1-1.556,1.556H48.651a1.558,1.558,0,0,1-1.556-1.556V72.967H71.92V83.629Zm-6-18.556v1.253a1.273,1.273,0,0,0,2.547,0V65.073h1.9a1.558,1.558,0,0,1,1.556,1.556V70.42H47.095V66.629a1.558,1.558,0,0,1,1.556-1.556h2.212v1.253a1.273,1.273,0,0,0,2.547,0V65.073Z" transform="translate(-44.548 -60)" fill="#fff" stroke="#19181f" stroke-width="0.6"/>
    </g>
  </g>
</svg>
