<svg id="noun_Attachment_1039494" xmlns="http://www.w3.org/2000/svg" width="16" height="14.627" viewBox="0 0 16 14.627">
  <g id="Group_9048" data-name="Group 9048">
    <path id="Path_24359" data-name="Path 24359" d="M15.822,4.687A4.157,4.157,0,0,0,12.86,5.919l-4.4,4.4-.022.009-3.5,3.5a3.23,3.23,0,0,0,0,4.544l.035.035a3.232,3.232,0,0,0,4.509-.035l3.495-3.491.009-.009.009-.013L16.758,11.1a2.1,2.1,0,0,0-2.975-2.976L8.37,13.547a.612.612,0,0,0,0,.874.634.634,0,0,0,.873,0L14.652,9a.858.858,0,0,1,.62-.249.868.868,0,0,1,.616.245.882.882,0,0,1,.258.62.869.869,0,0,1-.258.616L12.127,14l-.017.005-3.495,3.5a2,2,0,0,1-2.787.031l-.022-.031a2,2,0,0,1,0-2.8l3.1-3.1.017-.017,4.806-4.81a2.958,2.958,0,0,1,4.185,4.181l-6.063,6.063a.613.613,0,0,0,.865.87l6.064-6.064A4.152,4.152,0,0,0,20,8.869a4.193,4.193,0,0,0-4.179-4.182Z" transform="translate(-4.001 -4.687)" fill="#fff"/>
  </g>
</svg>
