<svg xmlns="http://www.w3.org/2000/svg" width="49.17" height="49.155" viewBox="0 0 49.17 49.155">
  <g id="tattoo_1_" data-name="tattoo (1)" transform="translate(0.5 0.421)">
    <path id="Path_9" data-name="Path 9" d="M318.393,9.78l-10.3-4.706V1.483a1.411,1.411,0,0,0-2.822,0v9.069a1.411,1.411,0,0,0,2.822,0V8.177l9.131,4.17a8.016,8.016,0,0,1,4.674,7.274v.1h-1.612a1.411,1.411,0,0,0,0,2.822h1.612v3.224h-1.612a1.411,1.411,0,0,0,0,2.822h1.612v2.5a3.725,3.725,0,0,1-1.1,2.651,1.419,1.419,0,0,0,0,2,3.724,3.724,0,0,1,1.1,2.651V46.83a1.411,1.411,0,0,0,2.822,0V38.387a6.525,6.525,0,0,0-1.1-3.649,6.525,6.525,0,0,0,1.1-3.649V19.621a10.846,10.846,0,0,0-6.324-9.842Z" transform="translate(-276.547)" fill="#cf1b1b" stroke="#16151d" stroke-width="1"/>
    <path id="Path_10" data-name="Path 10" d="M7.5,12.347l9.131-4.17v2.376a1.411,1.411,0,0,0,2.822,0V1.483a1.411,1.411,0,0,0-2.822,0V5.074L6.324,9.78A10.845,10.845,0,0,0,0,19.621V31.089a6.525,6.525,0,0,0,1.1,3.649A6.525,6.525,0,0,0,0,38.387V46.83a1.411,1.411,0,0,0,2.822,0V38.387a3.725,3.725,0,0,1,1.1-2.651,1.419,1.419,0,0,0,0-2,3.725,3.725,0,0,1-1.1-2.651v-2.5H4.434a1.411,1.411,0,0,0,0-2.822H2.822V22.545H4.434a1.411,1.411,0,0,0,0-2.822H2.822v-.1A8.016,8.016,0,0,1,7.5,12.347Z" transform="translate(0 0)" fill="#cf1b1b" stroke="#16151d" stroke-width="1"/>
    <path id="Path_11" data-name="Path 11" d="M315.819,257.067a1.411,1.411,0,0,0-1.411,1.411v6.046a1.612,1.612,0,0,1-1.612,1.612H306.75a1.411,1.411,0,0,0,0,2.822H312.8a4.431,4.431,0,0,0,1.612-.3V279.64a1.411,1.411,0,0,0,2.822,0V258.478A1.411,1.411,0,0,0,315.819,257.067Z" transform="translate(-276.619 -232.81)" fill="#cf1b1b" stroke="#16151d" stroke-width="1"/>
    <path id="Path_12" data-name="Path 12" d="M90.814,266.208H84.767a1.612,1.612,0,0,1-1.612-1.612V258.55a1.411,1.411,0,0,0-2.822,0v21.162a1.411,1.411,0,0,0,2.822,0V268.728a4.429,4.429,0,0,0,1.612.3h6.046A1.411,1.411,0,0,0,90.814,266.208Z" transform="translate(-72.775 -232.882)" fill="#cf1b1b" stroke="#16151d" stroke-width="1"/>
    <path id="Path_13" data-name="Path 13" d="M242.411,273.133A1.411,1.411,0,0,0,241,274.544v3.023a1.411,1.411,0,0,0,2.822,0v-3.023A1.411,1.411,0,0,0,242.411,273.133Z" transform="translate(-218.326 -247.364)" fill="#cf1b1b" stroke="#16151d" stroke-width="1"/>
    <path id="Path_14" data-name="Path 14" d="M108.457,154.167l.03-.032a1.411,1.411,0,0,0-2.029-1.961,2.867,2.867,0,0,1-4.046,0l-1.041-1.041a5.745,5.745,0,0,0,2.543-1.472,5,5,0,0,1,7.063,0,1.411,1.411,0,0,0,2.031-1.959,7.826,7.826,0,0,0-11.1-.025,2.864,2.864,0,0,1-2.793.726l1.756-1.756a1.411,1.411,0,0,0-2-2l-1.994,1.994-2.028-2.028a1.411,1.411,0,0,0-2,2l1.783,1.783a2.865,2.865,0,0,1-2.819-.719,7.826,7.826,0,0,0-11.1.025,1.411,1.411,0,0,0,2.031,1.959,5,5,0,0,1,7.063,0,5.747,5.747,0,0,0,2.57,1.479l-1.068,1.068a2.867,2.867,0,0,1-4.046,0,1.411,1.411,0,0,0-2.029,1.961l.03.032a5.693,5.693,0,0,0,8.041,0l3.569-3.569,3.535,3.535A5.693,5.693,0,0,0,108.457,154.167Z" transform="translate(-72.78 -130.555)" fill="#cf1b1b" stroke="#16151d" stroke-width="1"/>
  </g>
</svg>
