<svg id="Group_17575" data-name="Group 17575" xmlns="http://www.w3.org/2000/svg" width="20.758" height="21.229" viewBox="0 0 20.758 21.229">
  <path id="Path_25180" data-name="Path 25180" d="M119.68,258.723a.482.482,0,0,0-.482-.481h-1.681a.482.482,0,0,0-.482.481V260.4a.482.482,0,0,0,.482.482H119.2a.482.482,0,0,0,.482-.482v-1.681Z" transform="translate(-112.181 -247.012)" fill="#fff"/>
  <path id="Path_25181" data-name="Path 25181" d="M216.315,258.723a.481.481,0,0,0-.481-.481h-1.682a.482.482,0,0,0-.482.481V260.4a.482.482,0,0,0,.482.482h1.682a.482.482,0,0,0,.481-.482Z" transform="translate(-204.613 -247.012)" fill="#fff"/>
  <path id="Path_25182" data-name="Path 25182" d="M312.943,258.723a.482.482,0,0,0-.482-.481H310.78a.482.482,0,0,0-.482.481V260.4a.482.482,0,0,0,.482.482h1.681a.482.482,0,0,0,.482-.482Z" transform="translate(-297.039 -247.012)" fill="#fff"/>
  <path id="Path_25183" data-name="Path 25183" d="M119.68,355.357a.481.481,0,0,0-.482-.482h-1.681a.481.481,0,0,0-.482.482v1.681a.482.482,0,0,0,.482.482H119.2a.482.482,0,0,0,.482-.482v-1.681Z" transform="translate(-112.181 -339.442)" fill="#fff"/>
  <path id="Path_25184" data-name="Path 25184" d="M216.315,355.357a.481.481,0,0,0-.481-.482h-1.682a.481.481,0,0,0-.482.482v1.681a.482.482,0,0,0,.482.482h1.682a.482.482,0,0,0,.481-.482Z" transform="translate(-204.613 -339.442)" fill="#fff"/>
  <path id="Path_25185" data-name="Path 25185" d="M312.943,355.357a.481.481,0,0,0-.481-.482H310.78a.481.481,0,0,0-.482.482v1.681a.482.482,0,0,0,.482.482h1.682a.482.482,0,0,0,.481-.482v-1.681Z" transform="translate(-297.039 -339.442)" fill="#fff"/>
  <path id="Path_25186" data-name="Path 25186" d="M24.321,54.151v2.568a2.1,2.1,0,0,1-2.1,2.1H20.893a2.108,2.108,0,0,1-2.115-2.1V54.142H12.8v2.577a2.108,2.108,0,0,1-2.114,2.1H9.361a2.1,2.1,0,0,1-2.1-2.1V54.151a1.911,1.911,0,0,0-1.848,1.9V71.1a1.912,1.912,0,0,0,1.9,1.914H24.266a1.915,1.915,0,0,0,1.9-1.914V56.053A1.911,1.911,0,0,0,24.321,54.151Zm-.616,16.014a.823.823,0,0,1-.823.823H8.661a.823.823,0,0,1-.823-.823V62.391a.823.823,0,0,1,.823-.823H22.883a.823.823,0,0,1,.823.823v7.774Z" transform="translate(-5.411 -51.788)" fill="#fff"/>
  <path id="Path_25187" data-name="Path 25187" d="M80.271,5.651h1.312a.721.721,0,0,0,.721-.72V.721A.721.721,0,0,0,81.583,0H80.271a.721.721,0,0,0-.721.721v4.21A.721.721,0,0,0,80.271,5.651Z" transform="translate(-76.326)" fill="#fff"/>
  <path id="Path_25188" data-name="Path 25188" d="M345.179,5.651h1.312a.721.721,0,0,0,.721-.72V.721A.721.721,0,0,0,346.491,0h-1.312a.721.721,0,0,0-.721.721v4.21A.721.721,0,0,0,345.179,5.651Z" transform="translate(-329.714)" fill="#fff"/>
</svg>
