<svg xmlns="http://www.w3.org/2000/svg" width="30.118" height="27.817" viewBox="0 0 30.118 27.817">
  <g id="comment_3_" data-name="comment (3)" transform="translate(0.1 1.432)">
    <path id="Path_29182" data-name="Path 29182" d="M25.805-1.332H4.113A4.118,4.118,0,0,0,0,2.781V16.056a4.118,4.118,0,0,0,4.1,4.113v6.024l8.657-6.024H25.805a4.118,4.118,0,0,0,4.113-4.113V2.781A4.118,4.118,0,0,0,25.805-1.332Zm2.36,17.388a2.363,2.363,0,0,1-2.36,2.36h-13.6L5.852,22.838V18.416H4.113a2.363,2.363,0,0,1-2.36-2.36V2.781A2.363,2.363,0,0,1,4.113.421H25.805a2.363,2.363,0,0,1,2.36,2.36Zm0,0" fill="#fff" stroke="#fff" stroke-width="0.2"/>
    <path id="Path_29183" data-name="Path 29183" d="M171.293,131.172h13.9v1.753h-13.9Zm0,0" transform="translate(-163.285 -126.31)" fill="#fff" stroke="#fff" stroke-width="0.2"/>
    <path id="Path_29184" data-name="Path 29184" d="M171.293,211.172h13.9v1.753h-13.9Zm0,0" transform="translate(-163.285 -202.57)" fill="#fff" stroke="#fff" stroke-width="0.2"/>
    <path id="Path_29185" data-name="Path 29185" d="M171.293,291.172h13.9v1.753h-13.9Zm0,0" transform="translate(-163.285 -278.83)" fill="#fff" stroke="#fff" stroke-width="0.2"/>
  </g>
</svg>
