<svg xmlns="http://www.w3.org/2000/svg" width="24.357" height="23.314" viewBox="0 0 24.357 23.314">
  <g id="user_9_" data-name="user (9)" transform="translate(0.2 0.743)">
    <path id="Path_29189" data-name="Path 29189" d="M85.758,10.153A5.348,5.348,0,1,0,80.41,4.8,5.348,5.348,0,0,0,85.758,10.153Zm0-9.684A4.336,4.336,0,1,1,81.422,4.8,4.336,4.336,0,0,1,85.758.469Zm0,0" transform="translate(-77.152)" fill="#fff" stroke="#fff" stroke-width="0.4"/>
    <path id="Path_29190" data-name="Path 29190" d="M21.406,285.507a.5.5,0,0,0-.713,0l-1.321,1.32-3.258,3.258A8.6,8.6,0,0,0,0,294.28a.507.507,0,0,0,.506.506H13.058l-.415,1.24a.5.5,0,0,0,.122.516.509.509,0,0,0,.359.147.6.6,0,0,0,.162-.025l3.6-1.2c.005,0,.005,0,.01-.005a.172.172,0,0,0,.046-.02.017.017,0,0,0,.01-.005c.015-.01.035-.02.051-.03s.03-.025.045-.035.01-.005.01-.01.015-.01.02-.02l5.413-5.4,1.321-1.32a.5.5,0,0,0,0-.714Zm-4.675,8.758-1.685-1.685,4.68-4.68,1.685,1.685Zm-15.7-.5A7.592,7.592,0,0,1,15.37,290.83l-1.4,1.4-.02.02c-.005,0-.005.01-.01.01a.683.683,0,0,0-.066.1.018.018,0,0,1-.005.01c0,.015-.015.031-.02.046s0,0-.005.01l-.45,1.351H1.032Zm13.524-.253,1.239,1.239-1.862.622Zm7.574-4.649-1.685-1.685.6-.6,1.685,1.685Zm0,0" transform="translate(0 -274.318)" fill="#fff" stroke="#fff" stroke-width="0.4"/>
  </g>
</svg>
