<svg xmlns="http://www.w3.org/2000/svg" width="25.112" height="17.657" viewBox="0 0 25.112 17.657">
  <g id="mail_2_" data-name="mail (2)" transform="translate(0 -76)">
    <g id="Group_17590" data-name="Group 17590" transform="translate(17.275 77.262)">
      <g id="Group_17589" data-name="Group 17589">
        <path id="Path_24125" data-name="Path 24125" d="M359.827,101.721l-7.616,7.567,7.616,7.567a2.182,2.182,0,0,0,.221-.946V102.667A2.182,2.182,0,0,0,359.827,101.721Z" transform="translate(-352.211 -101.721)" fill="#cf1b1b"/>
      </g>
    </g>
    <g id="Group_17592" data-name="Group 17592" transform="translate(1.262 76)">
      <g id="Group_17591" data-name="Group 17591">
        <path id="Path_24126" data-name="Path 24126" d="M47.364,76h-20.7a2.181,2.181,0,0,0-.946.221l9.734,9.685a2.209,2.209,0,0,0,3.121,0l9.734-9.685A2.181,2.181,0,0,0,47.364,76Z" transform="translate(-25.721 -76)" fill="#cf1b1b"/>
      </g>
    </g>
    <g id="Group_17594" data-name="Group 17594" transform="translate(0 77.262)">
      <g id="Group_17593" data-name="Group 17593">
        <path id="Path_24127" data-name="Path 24127" d="M.221,101.721a2.181,2.181,0,0,0-.221.946v13.243a2.181,2.181,0,0,0,.221.946l7.616-7.567Z" transform="translate(0 -101.721)" fill="#cf1b1b"/>
      </g>
    </g>
    <g id="Group_17596" data-name="Group 17596" transform="translate(1.262 85.869)">
      <g id="Group_17595" data-name="Group 17595">
        <path id="Path_24128" data-name="Path 24128" d="M40.694,277.211l-1.078,1.078a3.682,3.682,0,0,1-5.2,0l-1.078-1.078-7.616,7.567a2.181,2.181,0,0,0,.946.221h20.7a2.181,2.181,0,0,0,.946-.221Z" transform="translate(-25.721 -277.211)" fill="#cf1b1b"/>
      </g>
    </g>
  </g>
</svg>
