<svg xmlns="http://www.w3.org/2000/svg" width="27.13" height="22.562" viewBox="0 0 27.13 22.562">
  <g id="heart" transform="translate(0.25 -35.264)">
    <g id="Group_17790" data-name="Group 17790" transform="translate(0 35.514)">
      <path id="Path_29173" data-name="Path 29173" d="M19.08,35.515h0a7.484,7.484,0,0,0-5.764,2.663,7.382,7.382,0,0,0-5.764-2.663A7.551,7.551,0,0,0,0,43.065C0,50.212,12.472,57.19,12.978,57.459a.607.607,0,0,0,.674,0c.506-.27,12.978-7.146,12.978-14.394A7.551,7.551,0,0,0,19.08,35.515Zm-5.764,20.6C11.36,54.965,1.348,48.863,1.348,43.065a6.2,6.2,0,0,1,6.2-6.2,6.068,6.068,0,0,1,5.191,2.8.708.708,0,0,0,1.146,0,6.2,6.2,0,0,1,11.394,3.4C25.282,48.931,15.27,55,13.315,56.111Z" transform="translate(0 -35.514)" fill="#fff" stroke="#fff" stroke-width="0.5"/>
    </g>
  </g>
</svg>
