<svg id="google-plus" xmlns="http://www.w3.org/2000/svg" width="16.509" height="10.318" viewBox="0 0 16.509 10.318">
  <path id="Path_24141" data-name="Path 24141" d="M20.461,9h-1.5v1.5h-1.5V12h1.5v1.5h1.5V12h1.5V10.5h-1.5Z" transform="translate(-5.45 -5.905)" fill="#fff"/>
  <path id="Path_24142" data-name="Path 24142" d="M5.159,14.818a4.758,4.758,0,0,0,4.955-5.039,4.408,4.408,0,0,0-.084-.858H5.16v1.773H8.088A2.794,2.794,0,0,1,5.16,12.917a3.259,3.259,0,0,1,0-6.517,2.9,2.9,0,0,1,2.055.8l1.4-1.344A4.934,4.934,0,0,0,5.159,4.5a5.159,5.159,0,0,0,0,10.318Z" transform="translate(0 -4.5)" fill="#fff"/>
</svg>
