<svg id="Group_17806" data-name="Group 17806" xmlns="http://www.w3.org/2000/svg" width="20.255" height="20.255" viewBox="0 0 20.255 20.255">
  <g id="Group_17805" data-name="Group 17805">
    <circle id="Ellipse_1084" data-name="Ellipse 1084" cx="0.989" cy="0.989" r="0.989" transform="translate(9.138 13.985)" fill="#fff"/>
    <path id="Path_29192" data-name="Path 29192" d="M10.127,0A10.127,10.127,0,1,0,20.255,10.127,10.122,10.122,0,0,0,10.127,0Zm0,18.672a8.545,8.545,0,1,1,8.545-8.545A8.54,8.54,0,0,1,10.127,18.672Z" fill="#fff"/>
    <path id="Path_29193" data-name="Path 29193" d="M179.165,128.5A3.168,3.168,0,0,0,176,131.665a.791.791,0,0,0,1.582,0,1.582,1.582,0,1,1,1.582,1.582.791.791,0,0,0-.791.791v1.978a.791.791,0,0,0,1.582,0V134.73a3.165,3.165,0,0,0-.791-6.23Z" transform="translate(-169.037 -123.416)" fill="#fff"/>
  </g>
</svg>
