<svg xmlns="http://www.w3.org/2000/svg" width="16.237" height="20.809" viewBox="0 0 16.237 20.809">
  <path id="Path_29188" data-name="Path 29188" d="M43.188,3.163A4.041,4.041,0,0,0,44.356,0a5.278,5.278,0,0,0-3.3,1.5,3.871,3.871,0,0,0-1.192,3.066A4.4,4.4,0,0,0,43.188,3.163Zm2.4,8.015a4.662,4.662,0,0,1,2.152-3.912A4.608,4.608,0,0,0,44.1,5.23c-1.554-.163-3.029.941-3.818.941s-2-.919-3.289-.895a4.86,4.86,0,0,0-4.125,2.578c-1.76,3.145-.451,7.8,1.264,10.355.838,1.249,1.836,2.65,3.147,2.6,1.265-.051,1.742-.841,3.269-.841s1.955.841,3.291.816c1.359-.025,2.22-1.273,3.051-2.526a11.485,11.485,0,0,0,1.381-2.922A4.527,4.527,0,0,1,45.591,11.177Z" transform="translate(-32.029)" fill="#060412"/>
</svg>
