<svg id="location-pin" xmlns="http://www.w3.org/2000/svg" width="18.609" height="27.853" viewBox="0 0 18.609 27.853">
  <path id="Path_24129" data-name="Path 24129" d="M103.478,85.124a4.124,4.124,0,1,0-4.124,4.124A4.129,4.129,0,0,0,103.478,85.124Zm0,0" transform="translate(-90.05 -76.594)" fill="#cf1b1b"/>
  <path id="Path_24130" data-name="Path 24130" d="M22.761,22.957c.639-.832,4.385-5.981,5.647-7.7,1.5-2.046,2.884-4.1,2.884-6.725A8.53,8.53,0,0,0,22.761,0h0A8.529,8.529,0,0,0,14.23,8.53c0,2.627,1.384,4.68,2.884,6.725ZM17,8.53a5.756,5.756,0,1,1,5.756,5.756A5.762,5.762,0,0,1,17,8.53Zm0,0" transform="translate(-13.456)" fill="#cf1b1b"/>
  <path id="Path_24131" data-name="Path 24131" d="M12.437,394.2c-.169.231-3.163,4.231-3.163,4.231l-3.1-4.231H2.416L0,400.611H18.609L16.192,394.2Zm0,0" transform="translate(0 -372.759)" fill="#cf1b1b"/>
</svg>
