<svg id="Group_8900" data-name="Group 8900" xmlns="http://www.w3.org/2000/svg" width="11.321" height="15.851" viewBox="0 0 11.321 15.851">
  <path id="Path_24119" data-name="Path 24119" d="M7.251-760.8a5.673,5.673,0,0,0-5.663,5.664c0,2.224,1.342,4.663,2.641,6.611a32.641,32.641,0,0,0,2.6,3.389.566.566,0,0,0,.42.187.567.567,0,0,0,.42-.187,32.675,32.675,0,0,0,2.6-3.389c1.3-1.948,2.641-4.387,2.641-6.611A5.669,5.669,0,0,0,7.251-760.8Zm0,1.132a4.52,4.52,0,0,1,4.526,4.531c0,1.739-1.2,4.111-2.449,5.985a23.084,23.084,0,0,1-2.077,2.713,23.038,23.038,0,0,1-2.078-2.713C3.924-751.029,2.72-753.4,2.72-755.14A4.524,4.524,0,0,1,7.251-759.672Zm0,2.266a2.275,2.275,0,0,0-2.266,2.266,2.274,2.274,0,0,0,2.266,2.265,2.273,2.273,0,0,0,2.265-2.265A2.274,2.274,0,0,0,7.251-757.406Zm0,1.132a1.125,1.125,0,0,1,1.132,1.133,1.124,1.124,0,0,1-1.132,1.132,1.124,1.124,0,0,1-1.132-1.132A1.125,1.125,0,0,1,7.251-756.273Z" transform="translate(-1.588 760.804)" fill="#8b8b8b"/>
</svg>
