<svg xmlns="http://www.w3.org/2000/svg" width="24.54" height="26.455" viewBox="0 0 24.54 26.455">
  <g id="Group_17793" data-name="Group 17793" transform="translate(-1344.862 -143.545)">
    <g id="Group_17792" data-name="Group 17792">
      <path id="XMLID_4_" d="M14.52,112.5H22.5a1.5,1.5,0,0,0,0-3H14.52Z" transform="translate(1468.133 134) rotate(90)" fill="#fff"/>
      <path id="XMLID_4_2" data-name="XMLID_4_" d="M10,0h5.979a1.5,1.5,0,1,1,0,3H10Z" transform="translate(1355.632 161.024) rotate(-90)" fill="#fff"/>
    </g>
    <path id="XMLID_5_" d="M113.29,42.3a12.261,12.261,0,0,0-10.19,5.433,1.5,1.5,0,0,0,2.49,1.673,9.27,9.27,0,1,1,.012,10.345,1.5,1.5,0,0,0-2.486,1.679A12.271,12.271,0,1,0,113.29,42.3Z" transform="translate(1411.701 44.44) rotate(90)" fill="#fff"/>
  </g>
</svg>
