<svg xmlns="http://www.w3.org/2000/svg" width="26.63" height="30.906" viewBox="0 0 26.63 30.906">
  <path id="notification" d="M24.943,23.517H23.755V15.2a10.708,10.708,0,0,0-7.6-10.234,3.444,3.444,0,1,0-6.175,0A10.708,10.708,0,0,0,2.375,15.2v8.314H1.188a1.188,1.188,0,0,0,0,2.375H7.251a5.711,5.711,0,0,0,5.576,4.513H13.3a5.711,5.711,0,0,0,5.576-4.513h6.064a1.188,1.188,0,0,0,0-2.375ZM12,3.444a1.069,1.069,0,1,1,1.069,1.069A1.07,1.07,0,0,1,12,3.444ZM13.3,28.031h-.475a3.331,3.331,0,0,1-3.106-2.138h6.688A3.331,3.331,0,0,1,13.3,28.031ZM4.751,23.517V15.2a8.314,8.314,0,0,1,16.628,0v8.314Zm0,0" transform="translate(0.25 0.25)" fill="#fff" stroke="#19181f" stroke-width="0.5"/>
</svg>
