<svg xmlns="http://www.w3.org/2000/svg" width="20" height="20" viewBox="0 0 20 20">
  <g id="Group_17658" data-name="Group 17658" transform="translate(-1167 -684)">
    <g id="Rectangle_4316" data-name="Rectangle 4316" transform="translate(1167 684)" fill="none" stroke="#fff" stroke-width="1">
      <rect width="9" height="9" stroke="none"/>
      <rect x="0.5" y="0.5" width="8" height="8" fill="none"/>
    </g>
    <g id="Rectangle_4319" data-name="Rectangle 4319" transform="translate(1167 695)" fill="none" stroke="#fff" stroke-width="1">
      <rect width="9" height="9" stroke="none"/>
      <rect x="0.5" y="0.5" width="8" height="8" fill="none"/>
    </g>
    <g id="Path_25480" data-name="Path 25480" transform="translate(1178 684)" fill="none">
      <path d="M0,0H9V9H0Z" stroke="none"/>
      <path d="M 1 1 L 1 8 L 2.25 8 L 8 8 L 8 1 L 1 1 M 0 0 L 9 0 L 9 9 C 9 9 4.5 9 2.25 9 C 0 9 0 9 0 9 L 0 0 Z" stroke="none" fill="#fff"/>
    </g>
    <g id="Rectangle_4318" data-name="Rectangle 4318" transform="translate(1178 695)" fill="none" stroke="#fff" stroke-width="1">
      <rect width="9" height="9" stroke="none"/>
      <rect x="0.5" y="0.5" width="8" height="8" fill="none"/>
    </g>
  </g>
</svg>
