<svg id="user_4_" data-name="user (4)" xmlns="http://www.w3.org/2000/svg" width="15.966" height="19.138" viewBox="0 0 15.966 19.138">
  <path id="Path_4" data-name="Path 4" d="M91.641,9.219A4.46,4.46,0,0,0,94.9,7.868a4.46,4.46,0,0,0,1.35-3.259A4.46,4.46,0,0,0,94.9,1.35a4.608,4.608,0,0,0-6.518,0,4.46,4.46,0,0,0-1.35,3.259,4.46,4.46,0,0,0,1.351,3.259A4.461,4.461,0,0,0,91.641,9.219Zm0,0" transform="translate(-83.778)" fill="#cf1b1b"/>
  <path id="Path_5" data-name="Path 5" d="M15.928,252.788a11.385,11.385,0,0,0-.155-1.209,9.526,9.526,0,0,0-.3-1.216,6,6,0,0,0-.5-1.134,4.28,4.28,0,0,0-.754-.982,3.323,3.323,0,0,0-1.083-.68,3.741,3.741,0,0,0-1.382-.25,1.4,1.4,0,0,0-.749.318c-.225.146-.487.316-.78.5a4.471,4.471,0,0,1-1.01.445,3.921,3.921,0,0,1-2.47,0,4.461,4.461,0,0,1-1.009-.445c-.29-.186-.553-.355-.781-.5a1.4,1.4,0,0,0-.749-.318,3.737,3.737,0,0,0-1.382.25,3.32,3.32,0,0,0-1.083.68,4.28,4.28,0,0,0-.753.982,6.016,6.016,0,0,0-.5,1.134,9.549,9.549,0,0,0-.3,1.216,11.345,11.345,0,0,0-.155,1.21c-.025.366-.038.746-.038,1.13a3.178,3.178,0,0,0,.944,2.4,3.4,3.4,0,0,0,2.432.887h9.215a3.4,3.4,0,0,0,2.432-.887,3.176,3.176,0,0,0,.944-2.4C15.966,253.533,15.953,253.152,15.928,252.788Zm0,0" transform="translate(0 -238.072)" fill="#cf1b1b"/>
</svg>
