<svg id="Group_17804" data-name="Group 17804" xmlns="http://www.w3.org/2000/svg" width="17.723" height="20.255" viewBox="0 0 17.723 20.255">
  <g id="Group_17803" data-name="Group 17803">
    <circle id="Ellipse_1080" data-name="Ellipse 1080" cx="1" cy="1" r="1" transform="translate(12.125 13)" fill="#fff"/>
    <path id="Path_29191" data-name="Path 29191" d="M48.932,14.321a.791.791,0,0,0,.791-.791V10.6a3.168,3.168,0,0,0-3.165-3.165h-.951V4.647a4.748,4.748,0,0,0-9.494,0v2.79h-.948A3.168,3.168,0,0,0,32,10.6V17.09a3.168,3.168,0,0,0,3.165,3.165H46.558a3.168,3.168,0,0,0,3.165-3.165.791.791,0,1,0-1.582,0,1.584,1.584,0,0,1-1.582,1.582H35.165a1.584,1.584,0,0,1-1.582-1.582V10.6A1.584,1.584,0,0,1,35.165,9.02H46.558A1.584,1.584,0,0,1,48.141,10.6V13.53A.791.791,0,0,0,48.932,14.321ZM44.025,7.437H37.7V4.647a3.166,3.166,0,0,1,6.33,0Z" transform="translate(-32)" fill="#fff"/>
    <circle id="Ellipse_1081" data-name="Ellipse 1081" cx="1" cy="1" r="1" transform="translate(6.125 13)" fill="#fff"/>
    <circle id="Ellipse_1082" data-name="Ellipse 1082" cx="1" cy="1" r="1" transform="translate(3.125 13)" fill="#fff"/>
    <circle id="Ellipse_1083" data-name="Ellipse 1083" cx="1" cy="1" r="1" transform="translate(9.125 13)" fill="#fff"/>
  </g>
</svg>
