<svg xmlns="http://www.w3.org/2000/svg" width="79.544" height="64.728" viewBox="0 0 79.544 64.728">
  <g id="Group_17585" data-name="Group 17585" transform="translate(0 0)">
    <path id="Path_24123" data-name="Path 24123" d="M53.549,35.281C57.774,20.172,68.2,9.2,78.327,9.2a13.921,13.921,0,0,1,2.419.211,1.606,1.606,0,0,1,1.272,2.018l-2.085,7.459a1.626,1.626,0,0,1-1.618,1.174l-.166,0c-3.757,0-10.623,5.631-14.124,18.146-.138.5-.27,1-.4,1.534a18.291,18.291,0,0,1,12.862-1.212,18.031,18.031,0,1,1-9.712,34.73C60.464,71.5,55.716,66.253,53.409,58.5A43.086,43.086,0,0,1,53.549,35.281Z" transform="translate(-51.884 -9.204)"/>
    <path id="Path_24124" data-name="Path 24124" d="M26.447,9.206a13.908,13.908,0,0,1,2.417.209,1.608,1.608,0,0,1,1.272,2.018L28.05,18.893a1.616,1.616,0,0,1-1.618,1.174l-.164,0c-3.757,0-10.624,5.631-14.125,18.146-.139.5-.27,1.008-.4,1.534a18.292,18.292,0,0,1,12.862-1.212,18.031,18.031,0,1,1-9.715,34.73C8.581,71.5,3.833,66.253,1.525,58.5A43.092,43.092,0,0,1,1.666,35.28C5.893,20.172,16.314,9.206,26.447,9.206Z" transform="translate(41.758 -9.204)"/>
  </g>
</svg>
