<svg id="noun_receipt_2372790" xmlns="http://www.w3.org/2000/svg" width="22.795" height="30.436" viewBox="0 0 22.795 30.436">
  <g id="Group_9039" data-name="Group 9039" transform="translate(0 0)">
    <g id="_001-invoice" data-name="001-invoice">
      <g id="Group_9041" data-name="Group 9041" transform="translate(7.959 4.775)">
        <g id="Group_9040" data-name="Group 9040" transform="translate(0)">
          <path id="Path_24356" data-name="Path 24356" d="M202.23,86.064h-1.274a1.019,1.019,0,0,1,0-2.037H203.5a.892.892,0,1,0,0-1.783h-1.019V81.226a.892.892,0,1,0-1.783,0v1.031a2.8,2.8,0,0,0,.255,5.592h1.274a1.018,1.018,0,1,1,0,2.037h-2.547a.892.892,0,1,0,0,1.783H200.7v1.018a.892.892,0,1,0,1.783,0V91.656a2.8,2.8,0,0,0-.255-5.592Z" transform="translate(-198.155 -80.334)" fill="#fff"/>
        </g>
      </g>
      <g id="Group_9043" data-name="Group 9043" transform="translate(5.731 21.012)">
        <g id="Group_9042" data-name="Group 9042" transform="translate(0)">
          <path id="Path_24357" data-name="Path 24357" d="M171.11,353.467h-9.551a.892.892,0,1,0,0,1.783h9.551a.892.892,0,1,0,0-1.783Z" transform="translate(-160.667 -353.467)" fill="#fff"/>
        </g>
      </g>
      <g id="Group_9045" data-name="Group 9045" transform="translate(0)">
        <g id="Group_9044" data-name="Group 9044" transform="translate(0)">
          <path id="Path_24358" data-name="Path 24358" d="M86.171,0H65.159a.892.892,0,0,0-.892.892V26.918a.892.892,0,0,0,.261.631l2.627,2.627a.892.892,0,0,0,1.261,0l2-2,2,2a.892.892,0,0,0,1.261,0l2-2,2,2a.892.892,0,0,0,1.261,0l2-2,2,2a.892.892,0,0,0,1.261,0L86.8,27.548a.892.892,0,0,0,.261-.631V.892A.892.892,0,0,0,86.171,0ZM83.544,28.283l-2-2a.892.892,0,0,0-1.261,0l-2,2-2-2a.892.892,0,0,0-1.261,0l-2,2-2-2a.892.892,0,0,0-1.261,0l-2,2L66.05,26.548V1.783H85.279V26.548h0Z" transform="translate(-64.267)" fill="#fff"/>
        </g>
      </g>
    </g>
  </g>
</svg>
