<svg xmlns="http://www.w3.org/2000/svg" width="28.608" height="24.946" viewBox="0 0 28.608 24.946">
  <path id="Path_24399" data-name="Path 24399" d="M31.486,13.593a.306.306,0,0,0-.48-.061l-2.662,2.659-1.7-.028-.031-1.7L29.276,11.8a.306.306,0,0,0-.064-.483,5.638,5.638,0,0,0-6.89,1.122A5.665,5.665,0,0,0,21.1,19.113l-2.234,2.234-2.626-2.626a6.113,6.113,0,0,0-1.473-6.113,5.6,5.6,0,0,0-7.131-.88.306.306,0,0,0-.061.48l2.659,2.662-.028,1.7L8.5,16.6,5.844,13.938a.306.306,0,0,0-.474.073A5.633,5.633,0,0,0,6.486,20.9a5.669,5.669,0,0,0,6.672,1.223L15.631,24.6,9.448,30.771a2.292,2.292,0,1,0,3.24,3.24l6.183-6.168,5.945,5.93a2.292,2.292,0,1,0,3.24-3.24l-5.945-5.945L24.5,22.2a6.113,6.113,0,0,0,6.113-1.473A5.61,5.61,0,0,0,31.486,13.593ZM12.257,33.58a1.681,1.681,0,1,1-2.378-2.375l6.19-6.187L18.446,27.4Zm15.368-.235.217.217-.217-.217a1.684,1.684,0,0,1-2.387,0l-6.15-6.165h0l-2.809-2.809h0l-2.846-2.846a.306.306,0,0,0-.361-.052A5.063,5.063,0,0,1,6.92,20.467a5.072,5.072,0,0,1-1.2-5.807l2.445,2.445a.306.306,0,0,0,.22.089l2.14-.037a.306.306,0,0,0,.306-.306l.034-2.14a.306.306,0,0,0-.089-.22L8.311,12.025A4.986,4.986,0,0,1,14.35,13a5.5,5.5,0,0,1,1.268,5.649.306.306,0,0,0,.07.306L27.625,30.964a1.684,1.684,0,0,1,0,2.381Zm2.546-13.052h0a5.5,5.5,0,0,1-5.649,1.265.306.306,0,0,0-.306.07L21.7,24.15l-.917-.917-1.467-1.467,2.39-2.39a.306.306,0,0,0,.052-.361,5.053,5.053,0,0,1,1-6.15,5.073,5.073,0,0,1,5.807-1.2L26.115,14.11a.306.306,0,0,0-.089.22l.037,2.14a.306.306,0,0,0,.306.306l2.14.034a.345.345,0,0,0,.22-.089L31.2,14.256A5.055,5.055,0,0,1,30.171,20.293Z" transform="translate(-4.207 -10.16)" fill="#fff" stroke="#fff" stroke-width="0.7"/>
</svg>
