<svg xmlns="http://www.w3.org/2000/svg" width="29.214" height="29.22" viewBox="0 0 29.214 29.22">
  <path id="Path_24384" data-name="Path 24384" d="M15.56,29.24H13.666A1.724,1.724,0,0,1,12.2,28.43c-.138-.217-.976-1.622-1.4-2.455l-1.514-.623c-.924.292-2.586.707-2.73.742a1.73,1.73,0,0,1-1.61-.462L3.606,24.292a1.727,1.727,0,0,1-.462-1.61c.058-.251.456-1.838.742-2.73l-.623-1.508C2.388,18,.926,17.114.81,17.041A1.724,1.724,0,0,1,0,15.58v-1.9a1.724,1.724,0,0,1,.809-1.461c.217-.138,1.622-.976,2.455-1.4l.623-1.508c-.292-.924-.707-2.586-.742-2.73a1.73,1.73,0,0,1,.462-1.61L4.948,3.626a1.727,1.727,0,0,1,1.61-.462c.251.058,1.838.456,2.73.742L10.8,3.284C11.24,2.408,12.126.946,12.2.83A1.724,1.724,0,0,1,13.66.02h1.894a1.724,1.724,0,0,1,1.461.809c.138.217.976,1.622,1.4,2.455l1.508.623c.924-.292,2.586-.707,2.73-.742a1.73,1.73,0,0,1,1.61.462l1.341,1.341a1.727,1.727,0,0,1,.462,1.61c-.058.251-.456,1.838-.742,2.73l.623,1.508c.877.444,2.338,1.33,2.455,1.4a1.724,1.724,0,0,1,.81,1.461v1.894a1.724,1.724,0,0,1-.809,1.461c-.217.138-1.622.976-2.455,1.4l-.611,1.514c.292.924.707,2.586.742,2.73a1.73,1.73,0,0,1-.462,1.61l-1.341,1.341a1.73,1.73,0,0,1-1.61.462c-.251-.058-1.838-.456-2.73-.742l-1.508.622c-.444.877-1.33,2.338-1.4,2.455a1.724,1.724,0,0,1-1.467.81ZM9.332,23.617l2.651,1.1.132.292c.269.585,1.239,2.227,1.461,2.563a.111.111,0,0,0,.1.053h1.894a.111.111,0,0,0,.1-.053c.172-.275,1.169-1.941,1.461-2.563l.132-.292,2.66-1.1.292.108c.6.222,2.449.7,2.838.789a.1.1,0,0,0,.1-.029l1.341-1.341a.1.1,0,0,0,.029-.1c-.073-.313-.547-2.2-.789-2.838l-.108-.292,1.1-2.654.292-.132c.585-.269,2.227-1.239,2.563-1.461a.111.111,0,0,0,.053-.1V13.674a.111.111,0,0,0-.053-.1h0c-.275-.172-1.941-1.169-2.563-1.461l-.292-.132-1.1-2.66.108-.292c.222-.6.7-2.449.789-2.838a.111.111,0,0,0-.029-.1L23.141,4.752a.1.1,0,0,0-.1-.029c-.313.073-2.192.547-2.838.789l-.292.108-2.665-1.1-.132-.292C16.843,3.647,15.872,2,15.65,1.668a.111.111,0,0,0-.1-.053H13.672a.111.111,0,0,0-.1.053c-.172.275-1.169,1.941-1.461,2.563l-.132.292-2.66,1.1-.292-.108c-.6-.222-2.449-.7-2.838-.789a.1.1,0,0,0-.1.029L4.749,6.1a.1.1,0,0,0-.029.1c.073.313.547,2.2.789,2.838l.108.292L4.521,12l-.292.132C3.644,12.4,2,13.367,1.666,13.589a.111.111,0,0,0-.053.1V15.58a.111.111,0,0,0,.053.1c.275.172,1.941,1.169,2.563,1.461l.292.132,1.1,2.66-.108.292c-.222.6-.7,2.449-.789,2.838a.111.111,0,0,0,.029.1L6.1,24.5a.1.1,0,0,0,.1.029c.313-.073,2.192-.547,2.838-.789Zm5.281-2.163a6.827,6.827,0,1,1,6.827-6.827,6.827,6.827,0,0,1-6.827,6.827Zm0-12.038a5.211,5.211,0,1,0,5.211,5.211,5.211,5.211,0,0,0-5.211-5.211Z" transform="translate(0 -0.02)" fill="#d9d9d9"/>
</svg>
