<svg id="snapchat" xmlns="http://www.w3.org/2000/svg" width="14.843" height="13.916" viewBox="0 0 14.843 13.916">
  <g id="Group_17604" data-name="Group 17604" transform="translate(0 0)">
    <path id="Path_24140" data-name="Path 24140" d="M14.552,26.38a4.287,4.287,0,0,1-2.915-2.446.14.14,0,0,0-.008-.017.613.613,0,0,1-.07-.5c.109-.254.524-.386.8-.473.08-.025.155-.049.217-.073a1.68,1.68,0,0,0,.592-.353.562.562,0,0,0,.18-.4.637.637,0,0,0-.477-.552.862.862,0,0,0-.323-.061.719.719,0,0,0-.3.061,1.687,1.687,0,0,1-.619.176.568.568,0,0,1-.205-.045c.006-.093.011-.188.018-.287l0-.043a7.348,7.348,0,0,0-.189-3,4.031,4.031,0,0,0-.908-1.3,3.8,3.8,0,0,0-1.086-.716,4.293,4.293,0,0,0-1.695-.358H7.527l-.255,0a4.309,4.309,0,0,0-1.7.358,3.777,3.777,0,0,0-1.083.715,4.044,4.044,0,0,0-.9,1.3,7.354,7.354,0,0,0-.19,2.995v0c.006.108.014.22.02.329a.6.6,0,0,1-.243.045,1.61,1.61,0,0,1-.661-.177.594.594,0,0,0-.251-.052.889.889,0,0,0-.444.124.615.615,0,0,0-.315.4.554.554,0,0,0,.212.52,1.824,1.824,0,0,0,.553.316c.063.025.138.048.217.073.275.087.691.219.8.473a.618.618,0,0,1-.071.5.131.131,0,0,0-.007.017,4.913,4.913,0,0,1-.748,1.156,4.2,4.2,0,0,1-.9.8,3.318,3.318,0,0,1-1.266.493.346.346,0,0,0-.29.362.44.44,0,0,0,.036.151h0a.927.927,0,0,0,.5.43,5.742,5.742,0,0,0,1.452.378,1.761,1.761,0,0,1,.089.319c.024.111.049.226.085.348a.38.38,0,0,0,.4.289,1.938,1.938,0,0,0,.341-.047,3.883,3.883,0,0,1,.778-.088,3.383,3.383,0,0,1,.557.047,2.644,2.644,0,0,1,1.04.537,3.367,3.367,0,0,0,2.05.8l.075,0c.03,0,.068,0,.107,0a3.372,3.372,0,0,0,2.05-.8h0a2.653,2.653,0,0,1,1.04-.536,3.383,3.383,0,0,1,.557-.047,3.9,3.9,0,0,1,.778.083,1.881,1.881,0,0,0,.341.042H12.3a.376.376,0,0,0,.381-.285c.035-.12.06-.231.085-.345a1.822,1.822,0,0,1,.088-.317,5.782,5.782,0,0,0,1.452-.378.931.931,0,0,0,.5-.429.441.441,0,0,0,.037-.153A.345.345,0,0,0,14.552,26.38Z" transform="translate(0 -15.988)" fill="#fff"/>
  </g>
</svg>
