<svg id="noun_Star_2367113" xmlns="http://www.w3.org/2000/svg" width="13.527" height="12.919" viewBox="0 0 13.527 12.919">
  <path id="Path_23960" data-name="Path 23960" d="M12.018,7.563l-1.472,2.984a.779.779,0,0,1-.595.439l-3.293.475A.779.779,0,0,0,6.217,12.8L8.6,15.141a.779.779,0,0,1,.229.7l-.564,3.272a.792.792,0,0,0,1.15.836l2.945-1.558a.779.779,0,0,1,.737,0l2.945,1.558a.792.792,0,0,0,1.15-.836l-.569-3.28a.779.779,0,0,1,.234-.693L19.242,12.8a.779.779,0,0,0-.441-1.35l-3.293-.467a.779.779,0,0,1-.595-.434L13.441,7.563a.795.795,0,0,0-1.423,0Z" transform="translate(-5.97 -7.122)" fill="#8b8b8b"/>
</svg>
