<svg xmlns="http://www.w3.org/2000/svg" width="39.42" height="48.655" viewBox="0 0 39.42 48.655">
  <g id="tattoo-artist" transform="translate(-48.867 0.25)">
    <path id="Path_15" data-name="Path 15" d="M88.032,47.373l-1.018-9.314A6.734,6.734,0,0,0,82.178,32.3l-8.493-2.461a1.307,1.307,0,0,1-.939-1.25V26.479a9.052,9.052,0,0,0,4.862-7.57H77.8a3.262,3.262,0,0,0,2.1-.76l.49,1.184a6.414,6.414,0,0,1-1.459,7.078,5.628,5.628,0,0,1-3.568,1.564.705.705,0,0,0,.037,1.41,7.041,7.041,0,0,0,4.515-1.963,7.818,7.818,0,0,0,1.779-8.628l-.826-2a3.269,3.269,0,0,0-.8-3.534A11.569,11.569,0,0,0,80.3,9.921a7.163,7.163,0,0,0-3.984-6.413,4.439,4.439,0,0,0-7.561-.738H67.505A2.749,2.749,0,0,0,64.79,0a2.712,2.712,0,0,0-2.248,1.193L61.51,2.718,60.478,1.193a2.715,2.715,0,0,0-4.963,1.522,1.945,1.945,0,0,0,1.9,1.967h1.718a7.137,7.137,0,0,0-2.282,5.24,11.254,11.254,0,0,0,.247,3.341,3.268,3.268,0,0,0-.794,3.553l-.818,1.979a7.816,7.816,0,0,0,1.778,8.628,7.03,7.03,0,0,0,4.847,1.971h2.019a1.3,1.3,0,0,1-.661.45L54.979,32.3a6.734,6.734,0,0,0-4.836,5.755l-1.018,9.314a.706.706,0,0,0,.625.778.718.718,0,0,0,.077,0,.706.706,0,0,0,.7-.629l.227-2.075a3.192,3.192,0,0,0,1.828-1.1l2.153-2.6a1.813,1.813,0,0,0,.363-1.583l-.168-.683a1.842,1.842,0,0,0-2.216-1.314l-1.2.318.031-.282a5.327,5.327,0,0,1,3.826-4.553l1.125-.326.287,3.969L56.3,40.027a15.8,15.8,0,0,0-.074,5.126l.358,2.4a.705.705,0,0,0,1.4-.208l-.358-2.4a14.384,14.384,0,0,1,.067-4.669l.4-2.231H66.9l-.614.614a.705.705,0,0,0,1,1l1.278-1.278,1.351,1.351a.705.705,0,1,0,1-1L69.177,37a.705.705,0,0,0-.62-.368H62.6l-.4-4.956,1.659-.481a2.78,2.78,0,0,0,1.958-2.605V27.069a9.2,9.2,0,0,0,5.513,0v1.524A2.725,2.725,0,0,0,73.293,31.2l1.66.481-.4,4.955H72.1a.705.705,0,1,0,0,1.411h6.969a19.39,19.39,0,0,1,.467,6.9l-.358,2.4a.705.705,0,1,0,1.4.208l.358-2.4c.462-2.558-.093-5.407-.562-7.85l.287-3.969,1.125.326a5.327,5.327,0,0,1,3.826,4.553l1.018,9.314a.706.706,0,0,0,.7.629.719.719,0,0,0,.077,0,.705.705,0,0,0,.625-.778ZM53.075,39.54a.406.406,0,0,1,.485.288l.168.683a.4.4,0,0,1-.079.346l-2.153,2.6a1.792,1.792,0,0,1-.573.458L51.351,40Zm8.111-2.906H58.151l-.268-3.7,2.94-.852ZM77.795,17.5h-.176V13.765h.176a1.867,1.867,0,0,1,0,3.734Zm1.1-7.578a17.2,17.2,0,0,1-.085,2.593,3.265,3.265,0,0,0-1.012-.161h-.176v-.613a4.437,4.437,0,0,0-1.445-3.275,6.811,6.811,0,0,0,.586-3.009,5.75,5.75,0,0,1,2.133,4.465ZM72.317,2.4a3.031,3.031,0,0,1,3.022,2.847c.175,2.111-1.074,4.844-3.243,4.939H67.244a2.616,2.616,0,0,1-2.261-1.471h1.061a2.775,2.775,0,0,0,2.645-1.921l.749-2.3A3.09,3.09,0,0,1,72.317,2.4ZM63.71,1.984a1.3,1.3,0,0,1,2.384.731.535.535,0,0,1-.492.556H62.839Zm-6.784.8V2.715a1.3,1.3,0,0,1,2.384-.731l.871,1.287H57.417A.492.492,0,0,1,56.926,2.779ZM59.539,17.5h-.176a1.867,1.867,0,0,1,0-3.734h.176Zm4.873,10.484h-2.3a5.626,5.626,0,0,1-3.863-1.571,6.412,6.412,0,0,1-1.458-7.078l.485-1.174a3.263,3.263,0,0,0,2.085.75h.188a9.053,9.053,0,0,0,4.862,7.57ZM60.95,18.459V11.74a3.012,3.012,0,0,1,.517-1.693.705.705,0,1,0-1.169-.79,4.417,4.417,0,0,0-.759,2.482v.613h-.176a3.262,3.262,0,0,0-1.012.161,18.323,18.323,0,0,1-.085-2.593,5.73,5.73,0,0,1,3.394-5.24H65.6a1.893,1.893,0,0,0,1.282-.5h1.17l-.707,2.174a1.367,1.367,0,0,1-1.3.947h-2.32a.705.705,0,0,0-.6,1.074c.837,1.624,2.127,3.281,4.121,3.219H72.1a4.12,4.12,0,0,0,3.346-1.868,3.028,3.028,0,0,1,.767,2.014v6.719a7.629,7.629,0,0,1-15.259,0ZM79.275,32.932l-.268,3.7H75.972l.364-4.554Z" transform="translate(0 0)" fill="#cf1b1b" stroke="#cf1b1b" stroke-width="0.5"/>
    <path id="Path_16" data-name="Path 16" d="M239.886,236.515a.891.891,0,0,1-1.146,0,.705.705,0,1,0-.908,1.08,2.3,2.3,0,0,0,2.962,0,.705.705,0,1,0-.908-1.08Z" transform="translate(-170.734 -214.121)" fill="#cf1b1b" stroke="#cf1b1b" stroke-width="0.5"/>
    <path id="Path_17" data-name="Path 17" d="M195.441,469.468a.705.705,0,1,0-1.361.371l.718,2.638a.705.705,0,1,0,1.361-.371Z" transform="translate(-131.303 -424.842)" fill="#cf1b1b" stroke="#cf1b1b" stroke-width="0.5"/>
    <path id="Path_18" data-name="Path 18" d="M296.919,468.974a.706.706,0,0,0-.866.5l-.718,2.638a.705.705,0,1,0,1.361.371l.718-2.638A.705.705,0,0,0,296.919,468.974Z" transform="translate(-223.034 -424.843)" fill="#cf1b1b" stroke="#cf1b1b" stroke-width="0.5"/>
    <path id="Path_19" data-name="Path 19" d="M249.206,180.761a.705.705,0,0,0,.705-.705v-1.843a.705.705,0,1,0-1.411,0v1.843A.705.705,0,0,0,249.206,180.761Z" transform="translate(-180.628 -160.812)" fill="#cf1b1b" stroke="#cf1b1b" stroke-width="0.5"/>
  </g>
</svg>
