<svg xmlns="http://www.w3.org/2000/svg" width="67.293" height="53.879" viewBox="0 0 67.293 53.879">
  <g id="XMLID_1902_" transform="translate(0.15 -51.361)">
    <path id="XMLID_412_" d="M66.61,102.856l-2.078-2.078v-3.79a1.309,1.309,0,0,0-.383-.925l-3.87-3.87V88.948a1.309,1.309,0,0,0-.383-.925l-1.646-1.646a4.892,4.892,0,0,0,2.006-8.132l-4.49-4.49a1.308,1.308,0,1,0-1.851,1.85l4.49,4.49a2.276,2.276,0,0,1-3.181,3.256L40.092,68.219a11.464,11.464,0,0,1,5.146.449,1.308,1.308,0,0,0,.813-2.487,14.106,14.106,0,0,0-7.419-.353L27.811,55.007a1.309,1.309,0,0,0-1.126-.368,7.082,7.082,0,0,1-6.074-1.983l-.673-.673a1.309,1.309,0,0,0-1.85,0l-4.2,4.2a1.308,1.308,0,0,0,0,1.85l.673.673a7.08,7.08,0,0,1,1.983,6.074,1.309,1.309,0,0,0,.368,1.126l5.622,5.622L13.044,80.47a9.758,9.758,0,0,1-6.718,2.667H1.308a1.308,1.308,0,1,0,0,2.617H6.326a12.366,12.366,0,0,0,8.513-3.379l9.544-8.995L26.7,75.7l-.728,2.32a5.209,5.209,0,0,0,6.571,6.517l8.106-2.618a2.774,2.774,0,0,1,3.258,1.293l.047.085a2.655,2.655,0,0,1-1.346,3.769c-2.258.885-4.972,1.949-6.952,2.723a8.2,8.2,0,0,0-4.6,4.638,12.554,12.554,0,0,1-11.576,7.914H1.308a1.308,1.308,0,0,0,0,2.617H19.484a14.932,14.932,0,0,0,8.454-2.625,15.107,15.107,0,0,0,5.551-6.944,5.605,5.605,0,0,1,2.829-3.038l5.046,5.046a4.894,4.894,0,0,0,6.921,0,4.938,4.938,0,0,0,.481-.559l1.159,1.159a1.309,1.309,0,0,0,.925.383H54.1l3.87,3.87a1.309,1.309,0,0,0,.925.383h3.79l2.078,2.078a1.309,1.309,0,0,0,1.851-1.851ZM48.064,92.429,44.59,88.955a5.269,5.269,0,0,0,2.166-5.619l2.374-2.374,5.2,5.2ZM38.731,79.784l-2.5.809-4.976-4.976,6.267-6.267,5.824,5.824Zm-2.6-12.752-7.2,7.2-9.249-9.249,7.2-7.2ZM16.657,57.114l2.36-2.36A9.7,9.7,0,0,0,23.8,57.165L19.069,61.9A9.7,9.7,0,0,0,16.657,57.114Zm15.08,24.929a2.592,2.592,0,0,1-3.27-3.243l.541-1.725L33.43,81.5Zm11.127-2.692,2.327-2.327,2.088,2.088-1.816,1.816A5.42,5.42,0,0,0,42.865,79.351Zm1.961,16.857a2.263,2.263,0,0,1-1.61-.667L38.971,91.3l3.061-1.2,4.838,4.838a2.275,2.275,0,0,1-2.043,1.273Zm5.089-1.928,6.268-6.268,1.479,1.479v2.844l-3.424,3.424H51.393Zm6.644,2.858,2.482-2.482,2.874,2.874v2.482H59.433Z" fill="#cf1b1b" stroke="#17161d" stroke-width="0.3"/>
    <g id="XMLID_284_" transform="translate(49.37 69.209)">
      <path id="XMLID_303_" d="M378.618,188.8a1.311,1.311,0,1,1,.924-.383A1.321,1.321,0,0,1,378.618,188.8Z" transform="translate(-377.31 -186.179)" fill="#cf1b1b" stroke="#17161d" stroke-width="0.3"/>
    </g>
  </g>
</svg>
