<svg xmlns="http://www.w3.org/2000/svg" width="22.693" height="22.692" viewBox="0 0 22.693 22.692">
  <g id="Page-1" transform="translate(0.003)">
    <g id="_003---Call" data-name="003---Call" transform="translate(-0.003)">
      <path id="Shape" d="M10.394,13.332a9.158,9.158,0,0,1-2.765-5.2.778.778,0,0,1,.223-.651L9.605,5.729a.782.782,0,0,0,.11-.968L6.925.427A.782.782,0,0,0,5.911.142l-4.48,2.11A.778.778,0,0,0,1,3.03,21.656,21.656,0,0,0,7.6,16.129a21.65,21.65,0,0,0,13.1,6.594.778.778,0,0,0,.777-.43l2.11-4.48A.782.782,0,0,0,23.3,16.8l-4.333-2.79a.782.782,0,0,0-.968.11l-1.752,1.753a.778.778,0,0,1-.651.223,9.158,9.158,0,0,1-5.2-2.765Z" transform="translate(-0.997 -0.036)" fill="#cf1b1b"/>
      <path id="Shape-2" data-name="Shape" d="M35.434,18.216a.782.782,0,0,1-.782-.782,5.875,5.875,0,0,0-5.869-5.869.782.782,0,1,1,0-1.565,7.442,7.442,0,0,1,7.434,7.434A.782.782,0,0,1,35.434,18.216Z" transform="translate(-17.435 -6.088)" fill="#cf1b1b"/>
      <path id="Shape-3" data-name="Shape" d="M39.346,12.128a.782.782,0,0,1-.782-.782,9.792,9.792,0,0,0-9.781-9.781.782.782,0,1,1,0-1.565A11.359,11.359,0,0,1,40.128,11.346a.782.782,0,0,1-.782.782Z" transform="translate(-17.435)" fill="#cf1b1b"/>
    </g>
  </g>
</svg>
