<svg id="twitter" xmlns="http://www.w3.org/2000/svg" width="17.729" height="14.405" viewBox="0 0 17.729 14.405">
  <g id="Group_17603" data-name="Group 17603" transform="translate(0 0)">
    <path id="Path_24139" data-name="Path 24139" d="M17.729,49.705a7.578,7.578,0,0,1-2.094.574,3.614,3.614,0,0,0,1.6-2.009,7.264,7.264,0,0,1-2.3.88,3.634,3.634,0,0,0-6.287,2.485,3.743,3.743,0,0,0,.084.829,10.288,10.288,0,0,1-7.492-3.8,3.636,3.636,0,0,0,1.117,4.858,3.59,3.59,0,0,1-1.642-.448v.04a3.651,3.651,0,0,0,2.912,3.571,3.628,3.628,0,0,1-.953.12,3.214,3.214,0,0,1-.688-.062,3.669,3.669,0,0,0,3.4,2.532A7.3,7.3,0,0,1,.87,60.824a6.809,6.809,0,0,1-.87-.05,10.233,10.233,0,0,0,5.576,1.631A10.274,10.274,0,0,0,15.921,52.062c0-.161-.006-.316-.013-.47A7.251,7.251,0,0,0,17.729,49.705Z" transform="translate(0 -48)" fill="#fff"/>
  </g>
</svg>
