<svg xmlns="http://www.w3.org/2000/svg" width="15.027" height="15.027" viewBox="0 0 15.027 15.027">
  <path id="user_3_" data-name="user (3)" d="M13.835,9.539a7.039,7.039,0,0,0-1.8-1.124.587.587,0,0,0-.477,1.073,5.871,5.871,0,0,1,1.5.933,2.341,2.341,0,0,1,.793,1.759v1.086a.588.588,0,0,1-.587.587H1.761a.588.588,0,0,1-.587-.587V12.18a2.341,2.341,0,0,1,.793-1.759A8.252,8.252,0,0,1,7.514,8.688a4.349,4.349,0,1,0-2.646-.9A8.161,8.161,0,0,0,1.192,9.539,3.515,3.515,0,0,0,0,12.18v1.086a1.763,1.763,0,0,0,1.761,1.761H13.266a1.763,1.763,0,0,0,1.761-1.761V12.18A3.515,3.515,0,0,0,13.835,9.539Zm-9.491-5.2a3.17,3.17,0,1,1,3.17,3.17A3.173,3.173,0,0,1,4.344,4.344Zm0,0" fill="#8b8b8b"/>
</svg>
