<svg id="user_4_" data-name="user (4)" xmlns="http://www.w3.org/2000/svg" width="74.745" height="89.591" viewBox="0 0 74.745 89.591">
  <path id="Path_4" data-name="Path 4" d="M108.61,43.156a20.879,20.879,0,0,0,15.257-6.322,20.878,20.878,0,0,0,6.321-15.257A20.881,20.881,0,0,0,123.867,6.32a21.573,21.573,0,0,0-30.514,0,20.88,20.88,0,0,0-6.322,15.256,20.878,20.878,0,0,0,6.323,15.257A20.884,20.884,0,0,0,108.61,43.156Zm0,0" transform="translate(-71.802 0)" fill="#404040"/>
  <path id="Path_5" data-name="Path 5" d="M74.564,272.931a53.3,53.3,0,0,0-.726-5.661,44.594,44.594,0,0,0-1.392-5.692,28.111,28.111,0,0,0-2.34-5.308,20.034,20.034,0,0,0-3.528-4.6,15.552,15.552,0,0,0-5.068-3.184,17.515,17.515,0,0,0-6.47-1.171c-.915,0-1.8.375-3.507,1.487-1.051.686-2.281,1.479-3.653,2.355a20.926,20.926,0,0,1-4.727,2.083,18.354,18.354,0,0,1-11.564,0,20.889,20.889,0,0,1-4.724-2.082c-1.36-.869-2.59-1.662-3.657-2.357-1.706-1.112-2.591-1.487-3.506-1.487a17.492,17.492,0,0,0-6.469,1.172,15.542,15.542,0,0,0-5.069,3.184,20.039,20.039,0,0,0-3.527,4.6,28.165,28.165,0,0,0-2.34,5.309A44.7,44.7,0,0,0,.9,267.27a53.116,53.116,0,0,0-.726,5.663C.06,274.647,0,276.427,0,278.224c0,4.677,1.487,8.463,4.418,11.255A15.906,15.906,0,0,0,15.8,293.632H58.942a15.9,15.9,0,0,0,11.385-4.153c2.932-2.79,4.419-6.577,4.419-11.256C74.745,276.418,74.684,274.637,74.564,272.931Zm0,0" transform="translate(0 -204.041)" fill="#404040"/>
</svg>
