<svg xmlns="http://www.w3.org/2000/svg" width="16.509" height="11.559" viewBox="0 0 16.509 11.559">
  <path id="youtube" d="M16.168-4.273a2.068,2.068,0,0,0-1.455-1.455,48.321,48.321,0,0,0-6.459-.353,50.2,50.2,0,0,0-6.459.34A2.11,2.11,0,0,0,.34-4.273,21.792,21.792,0,0,0,0-.3,21.712,21.712,0,0,0,.34,3.668,2.068,2.068,0,0,0,1.8,5.123a48.409,48.409,0,0,0,6.459.354,50.2,50.2,0,0,0,6.459-.34,2.068,2.068,0,0,0,1.455-1.455,21.8,21.8,0,0,0,.34-3.971A20.686,20.686,0,0,0,16.168-4.273ZM6.609,2.172v-4.95L10.906-.3Zm0,0" transform="translate(0 6.082)" fill="#fff"/>
</svg>
